<svg width="247" height="46" viewBox="0 0 247 46" fill="none" xmlns="http://www.w3.org/2000/svg">
<path d="M8.94321 35.0843C5.30832 25.1437 -3 20.4658 -3 16.9574V0H253V28.6521C245.211 27.4827 218.728 18.3608 202.112 28.6521C181.341 41.5164 177.386 23.3895 161.089 23.3895C152.781 23.3895 151.223 40.3469 144.473 40.3469C139.28 40.3469 138.763 25.5354 130.452 19.2963C125.779 15.7879 122.663 35.0843 117.471 35.0843C112.278 35.0843 110.72 11.6947 102.412 19.2963C92.0112 28.8122 94.7711 28.0674 87.353 19.2963C76.9676 7.01693 68.14 34.4995 58.7931 40.3469C49.4463 46.1943 47.8884 19.2963 38.5416 19.2963C26.0791 19.2963 20.5427 66.806 8.94321 35.0843Z" fill="url(#paint0_linear)"/>
<defs>
<linearGradient id="paint0_linear" x1="125" y1="0" x2="125" y2="46" gradientUnits="userSpaceOnUse">
<stop stop-color="#EAD396"/>
<stop offset="1" stop-color="#FFD974"/>
</linearGradient>
</defs>
</svg>
