<svg width="1466" height="37" viewBox="0 0 1466 37" fill="none" xmlns="http://www.w3.org/2000/svg">
<path d="M702.5 0.0598995C684 0.0599044 678.062 60.7154 606.5 11.0597C582 -5.94047 576.915 35.1053 517.5 32.0598C443.706 28.2773 473.5 -16.9401 417 9.56016C409.283 13.1799 367.816 33.6023 323.5 23.5599C286 15.0618 292 -27.441 227 28.059C177.5 44.059 154.475 -7.04354 135.5 9.56023C121.5 23.5593 97 25.0593 60 23.5593C21.1388 21.4773 2.02451 36.0907 6.3923e-06 36.5599L19.4648 36.56L1459.14 36.56L1465.5 36.56C1446 35.0601 1435.49 30.7487 1428 23.0597C1409 3.55972 1409.49 17.6671 1385.5 28.0597C1361.51 38.4522 1366 1.55974 1320 23.0597C1296.51 34.0403 1270 9.5599 1253.5 9.55991C1237 9.55991 1238.96 40.0248 1200 23.0598C1169 9.55979 1158.5 -3.94007 1130.5 9.55994C1108.83 20.0057 1089 38.0593 1070.5 28.0597C1052 18.0602 1040 -5.94004 1026.5 11.06C1006.29 36.5054 1001.29 44.4341 977 23.0598C939.5 -9.94001 952 20.56 923.5 11.06C891.287 0.322222 885.5 34.0597 855.5 11.06C818.192 -17.5424 817.5 33.5598 784 28.0598C763.5 24.6941 716 0.059896 702.5 0.0598995Z" fill="white"/>
</svg>
