<svg width="69" height="69" viewBox="0 0 69 69" fill="none" xmlns="http://www.w3.org/2000/svg">
<path d="M34.6853 67.5252C16.4235 67.5252 1.56689 52.6693 1.56689 34.4083C1.56689 16.1474 16.4235 1.2915 34.6853 1.2915C52.9472 1.2915 67.7921 16.1474 67.7921 34.4083C67.7921 52.6693 52.9472 67.5252 34.6853 67.5252Z" fill="url(#paint0_linear)"/>
<g filter="url(#filter0_i)">
<path d="M34.6348 3.03646C40.8852 3.03415 46.996 4.88543 52.1941 8.35614C57.3923 11.8269 61.4444 16.7611 63.838 22.5348C66.2315 28.3086 66.859 34.6624 65.641 40.7927C64.423 46.9231 61.4143 52.5545 56.9954 56.9748C52.5764 61.3952 46.9458 64.4058 40.8156 65.626C34.6855 66.8462 28.3311 66.2212 22.5562 63.8299C16.7813 61.4386 11.8453 57.3885 8.37253 52.1918C4.89973 46.9952 3.0461 40.8854 3.0461 34.6353C3.0461 26.2547 6.37542 18.2175 12.3016 12.2915C18.2278 6.36561 26.2655 3.03646 34.6464 3.03646H34.6348ZM34.6464 0.000361188C27.7952 -0.00158527 21.0974 2.02825 15.3999 5.83311C9.70254 9.63798 5.26156 15.047 2.6387 21.3759C0.0158431 27.7049 -0.671058 34.6695 0.664878 41.3888C2.00081 48.1082 5.29957 54.2804 10.1439 59.1249C16.6634 65.5015 25.4349 69.0498 34.5545 68.9995C43.674 68.9492 52.4058 65.3044 58.8546 58.8563C65.3034 52.4081 68.9487 43.6769 68.9995 34.5578C69.0502 25.4386 65.5022 16.6674 59.1256 10.1479C55.9171 6.92124 52.1005 4.36293 47.8967 2.62109C43.6928 0.879257 39.1852 -0.0115068 34.6348 0.000361188H34.6464Z" fill="url(#paint1_linear)"/>
</g>
<g filter="url(#filter1_d)">
<path d="M34.6858 54.928C30.6333 54.9271 26.672 53.7245 23.3029 51.4724C19.9339 49.2202 17.3084 46.0197 15.7584 42.2755C14.2084 38.5312 13.8036 34.4115 14.5951 30.4372C15.3866 26.4629 17.3389 22.8125 20.2051 19.9477C23.0714 17.083 26.7228 15.1324 30.6976 14.3427C34.6725 13.5531 38.7923 13.9598 42.536 15.5114C46.2797 17.063 49.4792 19.6899 51.7299 23.0598C53.9806 26.4297 55.1814 30.3913 55.1805 34.4436C55.1731 39.8758 53.0111 45.0831 49.169 48.9234C45.3268 52.7636 40.1182 54.923 34.6858 54.928Z" fill="url(#paint2_linear)"/>
</g>
<g filter="url(#filter2_i)">
<path d="M34.6859 52.7959C31.0773 52.7959 27.5497 51.7259 24.5493 49.7211C21.5488 47.7164 19.2103 44.867 17.8293 41.5332C16.4483 38.1994 16.087 34.531 16.791 30.9919C17.495 27.4528 19.2327 24.2019 21.7844 21.6504C24.3361 19.0988 27.5871 17.3612 31.1264 16.6572C34.6657 15.9532 38.3343 16.3145 41.6682 17.6954C45.0021 19.0763 47.8517 21.4148 49.8565 24.4151C51.8614 27.4154 52.9315 30.9428 52.9315 34.5513C52.9259 39.3883 51.0018 44.0257 47.5813 47.446C44.1608 50.8664 39.5233 52.7903 34.6859 52.7959Z" fill="url(#paint3_linear)"/>
</g>
<g filter="url(#filter3_d)">
<path d="M27.1956 23.976C39.3686 14.0807 48.169 28.4321 47.3376 28.0094L46.0717 28.3714C46.0717 28.3714 39.4363 16.269 28.027 24.8098L27.1956 23.976Z" fill="url(#paint4_linear)"/>
<path d="M46.0715 28.3719L36.0075 30.4015L28.0269 24.808C39.4315 16.2766 46.0715 28.3719 46.0715 28.3719ZM43.8924 27.718C43.8247 26.7838 42.5892 25.3475 41.2065 25.2821L38.196 29.1286L43.8924 27.718ZM37.0655 28.839L39.9079 24.2685C38.273 22.5963 35.5311 22.928 35.5311 22.928L36.0566 28.783L37.0655 28.839ZM34.6716 28.4233L34.2045 23.1452C34.2045 23.1452 31.4531 23.1312 30.7011 25.128L34.6716 28.4233Z" fill="url(#paint5_linear)"/>
<path d="M41.2019 25.2888C42.5846 25.3542 43.8201 26.7999 43.8878 27.7247L38.1914 29.126L41.2019 25.2888Z" fill="url(#paint6_radial)"/>
<path d="M39.906 24.2683L37.066 28.8388L36.057 28.785L35.5315 22.93C35.5315 22.93 38.2828 22.5961 39.906 24.2683Z" fill="url(#paint7_radial)"/>
<path d="M34.1953 23.145L34.6624 28.4232L30.6919 25.1278C31.4416 23.131 34.1953 23.145 34.1953 23.145Z" fill="url(#paint8_radial)"/>
</g>
<g filter="url(#filter4_d)">
<path d="M23.2834 43.9232C9.28623 40.469 15.5339 23.245 23.1035 25.473C23.1035 25.473 26.5602 22.3061 31.5279 25.5478C37.1333 29.2051 35.3653 39.2499 32.0418 42.6387C30.1476 44.5701 28.4333 42.989 26.6256 43.2225C25.9738 43.2989 25.336 43.4672 24.7314 43.7223C24.2843 43.9478 23.775 44.0184 23.2834 43.9232Z" fill="url(#paint9_linear)"/>
<g filter="url(#filter5_d)">
<path d="M24.3881 26.3393C24.3881 26.3393 24.3508 26.7644 24.3508 26.0637C24.3508 25.3631 21.5878 22.404 21.158 22.2219C20.7283 22.0397 20.3406 23.065 20.3406 23.065C20.9479 23.2856 21.493 23.6497 21.9293 24.1262C22.3657 24.6028 22.6804 25.1778 22.8466 25.8022L23.3675 27.5841C23.3675 27.5841 24.7688 27.4393 24.8202 26.769C24.8716 26.0988 24.3881 26.3393 24.3881 26.3393Z" fill="url(#paint10_linear)"/>
</g>
<g filter="url(#filter6_d)">
<path d="M24.3319 25.1882C23.5868 19.9358 31.8057 18.8264 31.8057 18.8264C31.8057 18.8264 32.9221 26.0874 26.3872 27.0379C26.3872 27.0379 24.437 27.505 24.2711 27.0379C24.1053 26.5708 24.3319 25.1882 24.3319 25.1882Z" fill="url(#paint11_linear)"/>
</g>
<g filter="url(#filter7_d)">
<path d="M24.4136 27.2458C24.4136 27.2458 27.9333 23.0957 30.3856 26.1411C28.4027 26.4074 28.4845 29.0184 24.4136 27.2458Z" fill="url(#paint12_linear)"/>
</g>
<g filter="url(#filter8_di)">
<path d="M20.9765 38.2982C20.9765 38.2982 18.0154 37.1725 18.2285 35.4841C18.4416 33.7956 20.3853 34.2627 20.3853 34.9916C20.3853 35.7204 21.2175 38.4107 20.9765 38.2982Z" fill="#F5FF9B"/>
</g>
<g filter="url(#filter9_di)">
<path d="M19.8548 33.4182C19.7123 33.9039 17.7131 33.0678 17.9093 32.3672C18.1055 31.6666 19.4274 30.0317 19.8548 30.0317C20.2822 30.0317 20.6909 30.5806 19.8548 33.4182Z" fill="#F5FF9B"/>
</g>
<g filter="url(#filter10_d)">
<path d="M24.4067 27.3159C24.4067 27.3159 22.265 26.1716 21.0202 26.975C19.9225 27.5331 19.3853 28.0259 19.5021 28.1427C19.5021 28.1427 20.4223 28.4066 22.5383 28.1427C23.1631 28.086 23.8483 27.6017 24.4067 27.3159Z" fill="url(#paint13_linear)"/>
</g>
</g>
<g filter="url(#filter11_d)">
<path d="M56.3108 24.4781C56.3878 25.6832 55.895 28.028 55.2971 28.682C55.0192 28.9856 54.7086 29.3149 54.4516 29.5835C54.3551 29.0067 54.1282 28.4595 53.7883 27.9837C53.9106 27.96 54.0259 27.9088 54.1255 27.834C54.2251 27.7591 54.3062 27.6625 54.3629 27.5516C54.8697 26.7365 54.7132 23.934 54.7132 23.934C54.7132 23.934 56.2313 23.2707 56.3108 24.4781Z" fill="url(#paint14_linear)"/>
<path d="M54.4517 29.5831C54.5731 30.4473 54.3256 31.4889 53.5455 33.1517C52.1441 36.1318 43.5796 41.5967 44.6703 40.742C40.2724 42.9606 35.4471 43.4021 33.0321 41.2091C30.4419 38.8572 31.3575 29.5691 31.3575 29.5691L31.4346 29.1417C31.4346 29.1417 31.9017 26.491 36.4958 26.6078C41.0898 26.7245 41.4262 27.4135 43.5422 28.1281C45.1467 28.67 47.7976 27.8619 48.7715 27.5256C48.9227 27.4713 49.0793 27.4337 49.2387 27.4135C49.8109 27.3551 52.7 26.4186 53.5408 27.6237C53.6272 27.7475 53.7066 27.8572 53.7744 27.9833C53.452 28.0581 53.1181 28.03 52.7537 28.7587C52.1698 29.9264 53.9215 30.1203 53.9215 30.1203L54.4517 29.5831Z" fill="url(#paint15_linear)"/>
<path d="M54.4516 29.5834L53.9354 30.1206C53.9354 30.1206 52.1837 29.9268 52.7676 28.759C53.132 28.0304 53.4683 28.0584 53.7883 27.9836C54.1282 28.4595 54.3551 29.0067 54.4516 29.5834Z" fill="#594C0A"/>
</g>
<g filter="url(#filter12_d)">
<path d="M47.0415 39.2524C47.1739 39.249 47.3055 39.2742 47.4272 39.3264C47.5489 39.3786 47.6579 39.4565 47.7467 39.5548C47.8354 39.6531 47.9018 39.7695 47.9414 39.8958C47.9809 40.0222 47.9927 40.1557 47.9758 40.287C47.6535 43.2764 45.7266 51.8826 35.2469 52.018C24.6411 52.1558 22.6348 43.4072 22.2448 40.3034C22.2248 40.1707 22.2343 40.0353 22.2725 39.9067C22.3107 39.7781 22.3768 39.6595 22.4659 39.5592C22.555 39.459 22.6651 39.3795 22.7883 39.3265C22.9115 39.2735 23.0449 39.2482 23.179 39.2524H47.0415Z" fill="url(#paint16_linear)"/>
<path d="M45.31 40.1191C46.2443 40.2873 46.3073 40.8198 46.2443 41.3826C45.9033 44.0427 44.203 50.7455 35.0943 50.8039C26.3826 50.8599 24.4464 44.0894 23.9559 41.3686C23.8462 40.7661 24.1451 40.39 24.757 40.1705L45.31 40.1191Z" fill="url(#paint17_linear)"/>
<g filter="url(#filter13_i)">
<path d="M36.9372 41.9172L40.6998 48.1459C39.3405 49.8812 35.8231 49.6453 35.8231 49.6453L35.5452 42.4053C36.1361 42.5034 36.9372 41.9172 36.9372 41.9172Z" fill="url(#paint18_radial)"/>
</g>
<g filter="url(#filter14_i)">
<path d="M34.4404 42.3545L34.3353 49.7229C32.524 49.7214 30.7741 49.0663 29.4072 47.8779L33.0811 42.0112C33.5063 42.2165 33.9687 42.3333 34.4404 42.3545Z" fill="url(#paint19_radial)"/>
</g>
<g filter="url(#filter15_i)">
<path d="M44.3783 43.3889C43.9112 45.4908 41.7181 47.4059 41.7181 47.4059L37.5537 41.4902L37.6168 41.1609L44.3783 43.3889Z" fill="url(#paint20_radial)"/>
</g>
<g filter="url(#filter16_i)">
<path d="M28.3027 47.0556C27.7328 46.7473 25.8107 44.6033 25.813 43.2628L32.1378 41.1982L32.5862 41.7237L28.3027 47.0556Z" fill="url(#paint21_radial)"/>
</g>
</g>
<g filter="url(#filter17_d)">
<path d="M26.0488 35.5064C26.0805 35.4614 26.0306 35.4364 26.0418 35.3826C26.053 35.3287 26.053 35.2029 26.0418 35.149C26.0306 35.0952 26.0806 35.0884 26.0489 35.0434C26.0172 34.9985 26.0888 35.0609 26.0418 35.0322C26.0418 35.0322 28.8935 33.5446 29.1621 32.573C29.3817 31.7837 31.5094 30.4711 32.3035 30.018C32.3749 29.9777 32.3095 30.0835 32.3479 30.011C32.3557 30.0015 32.4851 29.8245 32.488 29.8125C32.5814 29.7775 33.0953 29.4505 35.968 31.062C39.5695 33.0822 38.2592 42.7743 38.2592 42.7743C38.2592 42.7743 25.3411 43.5567 26.0488 35.5064Z" fill="url(#paint22_linear)"/>
<path d="M32.4741 29.8467C32.4772 29.835 32.4828 29.8241 32.4905 29.8147C32.4876 29.8264 32.482 29.8374 32.4741 29.8467Z" fill="#39B54A"/>
<g filter="url(#filter18_d)">
<path d="M32.474 29.8484C32.4355 29.9209 32.3772 29.9809 32.3058 30.0213C31.5117 30.4883 29.384 31.7869 29.1644 32.5762C28.8935 33.5478 26.0418 35.0332 26.0418 35.0332C25.7498 34.7996 24.937 34.5053 23.3372 34.5357C23.3372 34.5357 24.0659 32.5482 27.665 31.4996C27.665 31.4996 28.4731 28.3794 29.1528 28.0361C29.8324 27.6928 30.6335 29.2038 30.6335 29.2038C30.6335 29.2038 31.4556 27.7535 31.8013 27.7605C32.0629 27.7605 32.3759 28.9283 32.5207 29.5145C32.5467 29.6141 32.5376 29.7197 32.495 29.8134C32.4853 29.8232 32.4781 29.8352 32.474 29.8484Z" fill="url(#paint23_linear)"/>
</g>
<path d="M29.9026 35.6113L29.7742 35.7654C29.7555 35.788 29.7422 35.8144 29.7351 35.8427C29.728 35.8711 29.7274 35.9007 29.7332 35.9294C29.739 35.958 29.7511 35.985 29.7687 36.0084C29.7863 36.0317 29.8089 36.0509 29.8349 36.0643L30.4141 36.1367L30.0778 35.6486C30.073 35.6307 30.0634 35.6144 30.0499 35.6017C30.0365 35.5889 30.0198 35.5801 30.0016 35.5762C29.9835 35.5723 29.9647 35.5735 29.9472 35.5797C29.9297 35.5859 29.9143 35.5968 29.9026 35.6113Z" fill="#EAC6B9"/>
<path d="M34.0972 32.8092L33.9687 32.9633C33.9501 32.9859 33.9368 33.0123 33.9297 33.0407C33.9226 33.069 33.9219 33.0986 33.9278 33.1273C33.9336 33.1559 33.9457 33.1829 33.9633 33.2063C33.9809 33.2296 34.0035 33.2488 34.0295 33.2623L34.569 33.344L34.2724 32.8489C34.2679 32.8308 34.2585 32.8143 34.2452 32.8012C34.2319 32.7882 34.2152 32.7791 34.197 32.7749C34.1789 32.7708 34.1599 32.7718 34.1422 32.7779C34.1246 32.7839 34.109 32.7948 34.0972 32.8092Z" fill="#EAC6B9"/>
<path d="M29.9212 33.3762L29.7927 33.5303C29.7741 33.5529 29.7607 33.5793 29.7537 33.6077C29.7466 33.636 29.7459 33.6656 29.7517 33.6943C29.7575 33.7229 29.7697 33.7499 29.7873 33.7733C29.8049 33.7966 29.8275 33.8158 29.8534 33.8293L30.3345 33.9227L30.101 33.4135C30.0969 33.3945 30.0874 33.3771 30.0736 33.3634C30.0598 33.3497 30.0423 33.3403 30.0232 33.3363C30.0042 33.3324 29.9844 33.334 29.9663 33.3411C29.9482 33.3482 29.9325 33.3604 29.9212 33.3762Z" fill="#EAC6B9"/>
<path d="M31.7059 32.1084L31.5775 32.2626C31.5566 32.2872 31.541 32.3159 31.5317 32.3469C31.5225 32.3778 31.5198 32.4103 31.5237 32.4424L32.0329 32.676L31.8811 32.1435C31.876 32.1257 31.8662 32.1097 31.8526 32.0972C31.839 32.0847 31.8223 32.0761 31.8042 32.0725C31.7861 32.0689 31.7673 32.0703 31.75 32.0767C31.7327 32.083 31.7174 32.094 31.7059 32.1084Z" fill="#EAC6B9"/>
<path d="M29.6384 37.4396L29.51 37.5938C29.4914 37.6163 29.478 37.6427 29.4709 37.6711C29.4639 37.6995 29.4632 37.7291 29.469 37.7577C29.4748 37.7864 29.487 37.8134 29.5046 37.8367C29.5222 37.8601 29.5448 37.8792 29.5707 37.8927L30.0238 37.9698L29.8136 37.477C29.8089 37.4591 29.7992 37.4428 29.7858 37.43C29.7723 37.4172 29.7556 37.4084 29.7375 37.4046C29.7194 37.4007 29.7005 37.4019 29.683 37.4081C29.6655 37.4143 29.6501 37.4252 29.6384 37.4396Z" fill="#EAC6B9"/>
<path d="M33.9058 31.05L33.7773 31.2041C33.7587 31.2267 33.7454 31.2531 33.7383 31.2815C33.7312 31.3098 33.7305 31.3394 33.7363 31.3681C33.7422 31.3967 33.7543 31.4237 33.7719 31.4471C33.7895 31.4704 33.8121 31.4896 33.838 31.5031L34.3192 31.6969L34.0856 31.0897C34.0819 31.0705 34.0726 31.0528 34.0589 31.0388C34.0452 31.0248 34.0278 31.0151 34.0087 31.0109C33.9896 31.0067 33.9697 31.0081 33.9514 31.0151C33.9331 31.022 33.9173 31.0342 33.9058 31.05Z" fill="#EAC6B9"/>
<path d="M31.2828 34.4929L31.1543 34.647C31.1357 34.6695 31.1223 34.696 31.1152 34.7243C31.1081 34.7527 31.1075 34.7823 31.1133 34.811C31.1191 34.8396 31.1313 34.8666 31.1489 34.89C31.1665 34.9133 31.1891 34.9324 31.215 34.9459L31.7452 34.9039L31.4579 34.5302C31.4532 34.5123 31.4435 34.496 31.4301 34.4833C31.4167 34.4705 31.4 34.4616 31.3818 34.4578C31.3637 34.4539 31.3448 34.4551 31.3273 34.4613C31.3098 34.4675 31.2944 34.4784 31.2828 34.4929Z" fill="#EAC6B9"/>
<path d="M33.0508 34.9482L32.9224 35.1024C32.9037 35.1249 32.8904 35.1513 32.8833 35.1797C32.8762 35.2081 32.8755 35.2377 32.8814 35.2663C32.8872 35.295 32.8993 35.322 32.9169 35.3453C32.9345 35.3687 32.9571 35.3878 32.9831 35.4013L33.4642 35.4947L33.2307 34.9856C33.2266 34.9666 33.2171 34.9491 33.2032 34.9354C33.1894 34.9217 33.172 34.9123 33.1529 34.9083C33.1339 34.9044 33.1141 34.9061 33.0959 34.9131C33.0778 34.9202 33.0621 34.9324 33.0508 34.9482Z" fill="#EAC6B9"/>
<path d="M36.8229 36.0056L36.6781 36.1457C36.6572 36.1661 36.6411 36.1909 36.631 36.2183C36.6209 36.2457 36.617 36.2751 36.6197 36.3042C36.6224 36.3333 36.6316 36.3614 36.6465 36.3865C36.6615 36.4116 36.6818 36.4331 36.7061 36.4493L37.1732 36.5941L36.9911 36.0639C36.9884 36.0458 36.9807 36.0287 36.969 36.0146C36.9573 36.0005 36.942 35.9898 36.9247 35.9838C36.9073 35.9778 36.8887 35.9767 36.8708 35.9805C36.8528 35.9843 36.8363 35.993 36.8229 36.0056Z" fill="#EAC6B9" stroke="black" stroke-width="0.25" stroke-miterlimit="10"/>
<g filter="url(#filter19_d)">
<path d="M32.1398 37.2276L32.044 37.4051C32.0304 37.4309 32.0227 37.4594 32.0214 37.4885C32.0202 37.5176 32.0255 37.5467 32.0369 37.5735C32.0483 37.6004 32.0655 37.6244 32.0874 37.6437C32.1092 37.663 32.1351 37.6773 32.1631 37.6853H32.6536L32.3173 37.2346C32.3094 37.2181 32.2972 37.2041 32.2819 37.194C32.2666 37.184 32.2489 37.1783 32.2306 37.1776C32.2124 37.1768 32.1943 37.1811 32.1783 37.1899C32.1622 37.1987 32.1489 37.2118 32.1398 37.2276Z" fill="#EAC6B9"/>
</g>
<path d="M33.0208 38.9397L32.9344 39.1218C32.9218 39.1485 32.9153 39.1777 32.9155 39.2072C32.9158 39.2367 32.9226 39.2658 32.9356 39.2923C32.9487 39.3188 32.9675 39.342 32.9907 39.3602C33.014 39.3784 33.041 39.3911 33.0698 39.3974L33.558 39.3647L33.1983 38.9327C33.1891 38.9168 33.1758 38.9038 33.1598 38.895C33.1438 38.8862 33.1257 38.8819 33.1074 38.8826C33.0892 38.8834 33.0715 38.8891 33.0562 38.8991C33.0409 38.9092 33.0287 38.9232 33.0208 38.9397Z" fill="#EAC6B9" stroke="black" stroke-width="0.25" stroke-miterlimit="10"/>
<path d="M34.6812 34.7331L34.5527 34.8873C34.5341 34.9098 34.5208 34.9362 34.5137 34.9646C34.5066 34.993 34.5059 35.0226 34.5117 35.0512C34.5176 35.0799 34.5297 35.1069 34.5473 35.1302C34.5649 35.1536 34.5875 35.1727 34.6134 35.1862L35.0945 35.2796L34.861 34.7705C34.8569 34.7515 34.8474 34.734 34.8336 34.7203C34.8198 34.7066 34.8023 34.6972 34.7832 34.6933C34.7642 34.6893 34.7444 34.691 34.7263 34.698C34.7082 34.7051 34.6925 34.7173 34.6812 34.7331Z" fill="#EAC6B9"/>
<path d="M35.4029 39.3482L35.2745 39.5024C35.2529 39.5246 35.2368 39.5515 35.2276 39.5811C35.2184 39.6107 35.2163 39.642 35.2216 39.6725C35.2268 39.7031 35.2392 39.7319 35.2577 39.7567C35.2763 39.7816 35.3004 39.8016 35.3282 39.8153L35.8093 39.9088L35.5758 39.3996C35.5726 39.3811 35.5644 39.3638 35.5519 39.3498C35.5395 39.3357 35.5234 39.3254 35.5054 39.3201C35.4874 39.3147 35.4682 39.3145 35.4501 39.3195C35.432 39.3245 35.4157 39.3344 35.4029 39.3482Z" fill="#EAC6B9" stroke="black" stroke-width="0.25" stroke-miterlimit="10"/>
<path d="M36.5519 41.0035L36.4258 41.16C36.4092 41.1829 36.3978 41.2092 36.3923 41.237C36.3869 41.2648 36.3875 41.2934 36.3942 41.3209C36.4008 41.3484 36.4134 41.3741 36.4309 41.3964C36.4485 41.4186 36.4706 41.4367 36.4958 41.4496L36.9769 41.5337L36.7294 41.0385C36.7246 41.0202 36.7148 41.0037 36.701 40.9907C36.6873 40.9778 36.6702 40.9689 36.6516 40.9653C36.6331 40.9616 36.6139 40.9633 36.5962 40.97C36.5786 40.9768 36.5632 40.9884 36.5519 41.0035Z" fill="#EAC6B9" stroke="black" stroke-width="0.25" stroke-miterlimit="10"/>
<path d="M33.9267 40.5835L33.7538 40.6863C33.7285 40.7013 33.707 40.7219 33.6907 40.7464C33.6744 40.7709 33.6639 40.7988 33.6598 40.828C33.6558 40.8571 33.6584 40.8868 33.6674 40.9149C33.6764 40.9429 33.6915 40.9685 33.7118 40.9899L34.1345 41.2374L34.0785 40.6793C34.0803 40.6607 34.0769 40.6421 34.0687 40.6253C34.0605 40.6086 34.0478 40.5945 34.0321 40.5846C34.0164 40.5746 33.9981 40.5693 33.9795 40.5691C33.9609 40.5689 33.9426 40.5739 33.9267 40.5835Z" fill="#EAC6B9" stroke="black" stroke-width="0.25" stroke-miterlimit="10"/>
<path d="M37.3999 38.9326L37.2715 39.0867C37.2529 39.1093 37.2395 39.1357 37.2324 39.1641C37.2253 39.1924 37.2247 39.222 37.2305 39.2507C37.2363 39.2793 37.2485 39.3063 37.2661 39.3297C37.2837 39.353 37.3063 39.3722 37.3322 39.3857L37.8134 39.4791L37.5798 38.9699C37.5757 38.9509 37.5662 38.9335 37.5524 38.9198C37.5386 38.9061 37.5211 38.8967 37.502 38.8927C37.483 38.8888 37.4632 38.8904 37.4451 38.8975C37.4269 38.9046 37.4113 38.9168 37.3999 38.9326Z" fill="#EAC6B9" stroke="black" stroke-width="0.25" stroke-miterlimit="10"/>
<path d="M35.9282 37.4795L35.7998 37.6336C35.7812 37.6561 35.7678 37.6826 35.7607 37.7109C35.7536 37.7393 35.753 37.7689 35.7588 37.7976C35.7646 37.8262 35.7768 37.8532 35.7944 37.8766C35.812 37.8999 35.8346 37.919 35.8605 37.9325L36.3416 38.026L36.1081 37.5168C36.104 37.4978 36.0945 37.4804 36.0807 37.4667C36.0668 37.453 36.0494 37.4436 36.0303 37.4396C36.0113 37.4356 35.9915 37.4373 35.9734 37.4444C35.9552 37.4515 35.9396 37.4636 35.9282 37.4795Z" fill="#EAC6B9" stroke="black" stroke-width="0.25" stroke-miterlimit="10"/>
<path d="M34.3938 36.312L34.3728 36.4544C34.3611 36.5432 34.4592 36.6436 34.576 36.6623L34.9987 36.6296L34.5479 36.312C34.4919 36.2466 34.3938 36.2512 34.3938 36.312Z" fill="#EAC6B9"/>
<path d="M31.5489 40.0676L31.4789 40.2568C31.4688 40.2844 31.4651 40.3139 31.468 40.3431C31.4709 40.3724 31.4803 40.4006 31.4955 40.4257C31.5108 40.4508 31.5315 40.4721 31.5561 40.4882C31.5807 40.5042 31.6086 40.5145 31.6377 40.5184L32.1212 40.4436L31.7264 40.0489C31.7163 40.0335 31.7021 40.0212 31.6855 40.0133C31.6688 40.0054 31.6503 40.0023 31.632 40.0042C31.6137 40.0061 31.5962 40.0131 31.5816 40.0243C31.5669 40.0355 31.5556 40.0504 31.5489 40.0676Z" fill="#EAC6B9"/>
<path d="M29.4424 39.3479L29.3139 39.502C29.2953 39.5246 29.282 39.551 29.2749 39.5793C29.2678 39.6077 29.2671 39.6373 29.273 39.666C29.2788 39.6946 29.2909 39.7216 29.3085 39.745C29.3261 39.7683 29.3487 39.7874 29.3747 39.8009L29.8558 39.8944L29.6222 39.3852C29.6181 39.3662 29.6086 39.3488 29.5948 39.3351C29.581 39.3214 29.5635 39.312 29.5445 39.308C29.5254 39.3041 29.5056 39.3057 29.4875 39.3128C29.4694 39.3199 29.4537 39.332 29.4424 39.3479Z" fill="#EAC6B9"/>
<path d="M35.8653 32.2691L35.7368 32.4232C35.7182 32.4457 35.7048 32.4722 35.6977 32.5005C35.6907 32.5289 35.69 32.5585 35.6958 32.5872C35.7016 32.6158 35.7138 32.6428 35.7314 32.6662C35.749 32.6895 35.7716 32.7086 35.7975 32.7221L36.2646 32.93L36.0311 32.3064C36.0254 32.2904 36.0158 32.2761 36.0031 32.2648C35.9904 32.2536 35.9751 32.2457 35.9585 32.242C35.9419 32.2382 35.9247 32.2388 35.9084 32.2435C35.8921 32.2482 35.8772 32.257 35.8653 32.2691Z" fill="#EAC6B9"/>
<path d="M27.9405 35.1933L27.812 35.3474C27.7934 35.37 27.78 35.3964 27.7729 35.4248C27.7659 35.4531 27.7652 35.4827 27.771 35.5114C27.7768 35.5401 27.789 35.567 27.8066 35.5904C27.8242 35.6138 27.8468 35.6329 27.8727 35.6464L28.2721 35.6581L28.1156 35.2307C28.1109 35.2127 28.1012 35.1965 28.0878 35.1837C28.0744 35.1709 28.0576 35.1621 28.0395 35.1582C28.0214 35.1543 28.0025 35.1556 27.985 35.1618C27.9675 35.168 27.9521 35.1789 27.9405 35.1933Z" fill="#EAC6B9"/>
<path d="M36.8907 34.1352L36.7622 34.2894C36.7436 34.3119 36.7302 34.3383 36.7231 34.3667C36.716 34.3951 36.7154 34.4247 36.7212 34.4533C36.727 34.482 36.7392 34.509 36.7568 34.5323C36.7744 34.5557 36.797 34.5748 36.8229 34.5883L37.29 34.67L37.0705 34.1726C37.0664 34.1536 37.0569 34.1361 37.0431 34.1224C37.0293 34.1087 37.0118 34.0993 36.9927 34.0954C36.9737 34.0914 36.9539 34.0931 36.9358 34.1001C36.9177 34.1072 36.902 34.1194 36.8907 34.1352Z" fill="#EAC6B9"/>
<path d="M27.4434 38.1991L27.3149 38.3532C27.2963 38.3758 27.283 38.4022 27.2759 38.4306C27.2688 38.459 27.2681 38.4886 27.2739 38.5172C27.2798 38.5459 27.2919 38.5729 27.3095 38.5962C27.3271 38.6196 27.3497 38.6387 27.3756 38.6522L27.8264 38.6966L27.6186 38.2295C27.6129 38.2121 27.6026 38.1965 27.5888 38.1845C27.575 38.1725 27.5582 38.1645 27.5401 38.1614C27.5221 38.1583 27.5036 38.1601 27.4865 38.1668C27.4695 38.1734 27.4545 38.1846 27.4434 38.1991Z" fill="#EAC6B9"/>
</g>
<g filter="url(#filter20_d)">
<path d="M42.7318 41.9946C33.4713 44.7248 32.112 41.1772 32.112 41.1772C32.112 41.1772 30.8227 37.5596 39.8964 34.2339C39.8964 34.2339 42.3792 35.1307 40.7443 35.112C38.9202 35.0933 41.1156 36.0462 41.1156 36.0462C41.1156 36.0462 41.4543 37.8982 42.2087 37.7044C42.9631 37.5105 42.0849 38.3466 42.2087 38.5989C42.3325 38.8511 42.7435 39.8623 43.1429 39.7386C43.5423 39.6148 43.2714 40.1473 43.2714 40.1473C43.2714 40.1473 41.536 41.3057 42.7318 41.9946Z" fill="url(#paint24_linear)"/>
<g filter="url(#filter21_d)">
<path d="M47.1392 38.7412C47.1392 38.7412 45.6327 37.0526 44.1706 37.466C44.1706 37.466 45.4062 42.4639 44.0679 42.228C44.0679 42.228 43.4069 42.5994 43.0706 42.172C42.7343 41.7446 42.7296 41.9945 42.7296 41.9945C41.5361 41.3055 43.2644 40.1541 43.2644 40.1541C43.2644 40.1541 43.5354 39.6217 43.136 39.7454C42.7366 39.8692 42.3185 38.858 42.2018 38.6057C42.085 38.3535 42.9632 37.5174 42.2018 37.7112C41.4404 37.9051 41.1087 36.0531 41.1087 36.0531C41.1087 36.0531 38.9133 35.0909 40.7374 35.1189C42.3723 35.1376 39.8896 34.2407 39.8896 34.2407C39.8896 34.2407 38.6937 34.166 38.8105 33.9675C38.9273 33.769 39.6537 33.0917 39.9596 33.1594C39.9596 33.1594 39.8452 32.6643 40.1698 32.5242C40.4945 32.3841 41.2862 31.277 41.6179 32.0711C41.6179 32.0711 41.4754 33.052 41.7557 33.1688C42.0359 33.2855 42.76 34.1613 42.7436 34.3692C42.7273 34.5771 43.5541 33.9511 44.0445 33.9628C44.535 33.9745 44.3949 35.5977 44.3949 35.5977C45.0512 35.3501 48.3163 37.1858 48.3163 37.1858L47.1392 38.7412Z" fill="url(#paint25_linear)"/>
</g>
<path d="M39.0649 36.9403L38.8617 37.1621C38.846 37.1794 38.8352 37.2005 38.8302 37.2233C38.8252 37.2462 38.8264 37.2699 38.8335 37.2921C38.8405 37.3144 38.8534 37.3343 38.8706 37.3501C38.8879 37.3658 38.909 37.3767 38.9318 37.3817L39.2494 37.4471C39.3499 37.4471 39.3802 37.2696 39.3078 37.1224L39.2728 37.05C39.2167 36.9379 39.1257 36.8912 39.0649 36.9403Z" fill="#FFCC99"/>
<path d="M37.7524 38.2929L37.6193 38.5474C37.6041 38.5711 37.5958 38.5985 37.5952 38.6266C37.5947 38.6547 37.602 38.6824 37.6163 38.7067C37.6306 38.7309 37.6513 38.7506 37.6762 38.7638C37.701 38.7769 37.7291 38.7829 37.7571 38.781H38.0187C38.1168 38.7576 38.1191 38.5848 38.0187 38.4517L37.972 38.3863C37.8972 38.2672 37.8015 38.2345 37.7524 38.2929Z" fill="#FFCC99"/>
<path d="M37.5516 36.2773L37.4044 36.5459C37.3925 36.5686 37.387 36.5942 37.3884 36.6198C37.3898 36.6455 37.3982 36.6703 37.4125 36.6916C37.4269 36.7129 37.4467 36.7299 37.47 36.7408C37.4932 36.7518 37.519 36.7562 37.5446 36.7537L37.8576 36.7164C37.9533 36.6837 37.9393 36.5108 37.8295 36.3871L37.7758 36.3263C37.6964 36.2376 37.596 36.2142 37.5516 36.2773Z" fill="#FFCC99"/>
<path d="M40.3915 36.5251L40.1813 36.7587C40.1669 36.7748 40.157 36.7943 40.1526 36.8154C40.1481 36.8365 40.1492 36.8584 40.1559 36.879C40.1625 36.8995 40.1743 36.918 40.1903 36.9325C40.2062 36.947 40.2256 36.9572 40.2467 36.9619L40.576 37.0319C40.6764 37.0319 40.7068 36.8544 40.6344 36.7073L40.5993 36.6349C40.5433 36.5251 40.4522 36.4761 40.3915 36.5251Z" fill="#FFCC99"/>
<path d="M41.487 38.7088L41.3119 38.9867C41.3003 39.005 41.2935 39.026 41.2922 39.0477C41.2909 39.0693 41.2951 39.0909 41.3045 39.1105C41.3138 39.1301 41.3279 39.147 41.3456 39.1597C41.3632 39.1723 41.3837 39.1803 41.4053 39.1829L41.6716 39.2156C41.772 39.2156 41.8024 39.0381 41.73 38.8909L41.6949 38.8185C41.6342 38.7064 41.5454 38.648 41.487 38.7088Z" fill="#FFCC99"/>
<path d="M41.6343 40.1682L41.1274 40.3411C41.1052 40.3485 41.0858 40.3628 41.0721 40.3819C41.0584 40.4009 41.051 40.4238 41.051 40.4473C41.051 40.4708 41.0584 40.4937 41.0721 40.5128C41.0858 40.5318 41.1052 40.5461 41.1274 40.5536L41.6249 40.7077C41.7207 40.7381 41.8094 40.5863 41.7931 40.4228V40.3434C41.7767 40.2219 41.709 40.1449 41.6343 40.1682Z" fill="#FFCC99"/>
<path d="M38.3524 39.5302L38.0932 39.7638C38.076 39.7795 38.0637 39.7998 38.0578 39.8223C38.0518 39.8447 38.0524 39.8685 38.0596 39.8906C38.0667 39.9127 38.08 39.9324 38.098 39.9471C38.116 39.9619 38.1378 39.9712 38.1609 39.974L38.5369 40.0253C38.6373 40.0253 38.6677 39.8478 38.5953 39.7007L38.5603 39.6283C38.5019 39.5302 38.4108 39.4812 38.3524 39.5302Z" fill="#FFCC99"/>
<path d="M36.1245 37.6527L35.9167 37.9049C35.9055 37.9183 35.8978 37.9342 35.8945 37.9513C35.8911 37.9684 35.8922 37.9861 35.8976 38.0027C35.903 38.0193 35.9125 38.0342 35.9252 38.0461C35.9379 38.058 35.9535 38.0665 35.9704 38.0707L36.309 38.1595C36.4094 38.1595 36.4398 37.982 36.3674 37.8348L36.3324 37.7625C36.2763 37.6503 36.1853 37.6036 36.1245 37.6527Z" fill="#FFCC99"/>
<path d="M39.2774 41.0793L39.1279 41.1797C39.0984 41.1982 39.0742 41.2238 39.0574 41.2543C39.0406 41.2847 39.0317 41.3189 39.0317 41.3537C39.0317 41.3884 39.0406 41.4226 39.0574 41.4531C39.0742 41.4835 39.0984 41.5092 39.1279 41.5277L39.2797 41.6164C39.3778 41.6444 39.4619 41.4903 39.4385 41.3268V41.2474C39.4222 41.1283 39.3521 41.0512 39.2774 41.0793Z" fill="#FFCC99"/>
<path d="M39.9432 39.7432L39.74 39.9581C39.722 39.976 39.7094 39.9985 39.7034 40.0231C39.6974 40.0477 39.6983 40.0735 39.706 40.0977C39.7137 40.1218 39.728 40.1434 39.7472 40.1599C39.7663 40.1765 39.7897 40.1875 39.8147 40.1916L40.1277 40.2523C40.2281 40.2523 40.2585 40.0748 40.1861 39.9277L40.151 39.8553C40.0926 39.7409 39.9992 39.6942 39.9432 39.7432Z" fill="#FFCC99"/>
<path d="M37.7057 41.0208L37.5796 41.2871C37.5654 41.3129 37.5588 41.3421 37.5603 41.3715C37.5618 41.4009 37.5714 41.4293 37.5882 41.4535C37.6049 41.4777 37.628 41.4968 37.6549 41.5087C37.6819 41.5205 37.7116 41.5247 37.7407 41.5206L37.9743 41.4973C38.0724 41.4739 38.0748 41.3011 37.9743 41.168L37.9276 41.1026C37.8552 40.9951 37.7571 40.9624 37.7057 41.0208Z" fill="#FFCC99"/>
<path d="M36.6498 41.5277L36.5237 41.7939C36.5095 41.8197 36.5028 41.8489 36.5044 41.8783C36.5059 41.9077 36.5155 41.9361 36.5323 41.9603C36.549 41.9846 36.5721 42.0037 36.599 42.0155C36.626 42.0274 36.6557 42.0315 36.6848 42.0274L36.9184 42.0041C37.0165 41.9807 37.0188 41.8079 36.9184 41.6748L36.8717 41.6094C36.7993 41.502 36.7012 41.4693 36.6498 41.5277Z" fill="#FFCC99"/>
<path d="M35.0828 41.7493L34.9146 42.1043C34.9066 42.1207 34.9032 42.139 34.9046 42.1573C34.9061 42.1755 34.9123 42.193 34.9228 42.208C34.9333 42.223 34.9476 42.2349 34.9642 42.2426C34.9808 42.2502 34.9992 42.2532 35.0174 42.2514L35.3491 42.2187C35.4472 42.1954 35.4495 42.0225 35.3491 41.8894L35.3024 41.824C35.2323 41.7236 35.1342 41.6839 35.0828 41.7493Z" fill="#FFCC99"/>
<path d="M33.0344 40.1143L32.8289 40.5487C32.8245 40.5575 32.8226 40.5673 32.8234 40.5771C32.8242 40.5869 32.8277 40.5963 32.8335 40.6042C32.8393 40.6122 32.8471 40.6184 32.8562 40.6222C32.8653 40.626 32.8752 40.6272 32.8849 40.6257L33.3007 40.5837C33.3988 40.5603 33.4011 40.3875 33.3007 40.2544L33.254 40.189C33.1839 40.0886 33.0858 40.0489 33.0344 40.1143Z" fill="#FFCC99"/>
<path d="M33.6371 41.1353L33.511 41.4016C33.4968 41.4274 33.4901 41.4566 33.4917 41.486C33.4932 41.5154 33.5028 41.5438 33.5196 41.568C33.5363 41.5922 33.5594 41.6113 33.5863 41.6232C33.6133 41.635 33.643 41.6392 33.6721 41.6351L33.9057 41.6118C34.0038 41.5884 34.0061 41.4156 33.9057 41.2825L33.859 41.2171C33.7866 41.1096 33.6931 41.0769 33.6371 41.1353Z" fill="#FFCC99"/>
<path d="M33.9828 38.7833L33.8567 39.0495C33.8425 39.0753 33.8359 39.1046 33.8374 39.134C33.8389 39.1633 33.8485 39.1917 33.8653 39.216C33.882 39.2402 33.9051 39.2593 33.932 39.2711C33.959 39.283 33.9887 39.2871 34.0178 39.2831L34.2514 39.2597C34.3495 39.2364 34.3518 39.0635 34.2514 38.9304L34.2046 38.865C34.1322 38.7576 34.0342 38.7249 33.9828 38.7833Z" fill="#FFCC99"/>
<path d="M36.6314 39.3088L36.4656 39.6544C36.4578 39.6719 36.4547 39.6911 36.4566 39.7101C36.4585 39.7291 36.4653 39.7473 36.4764 39.7629C36.4875 39.7784 36.5025 39.7909 36.5198 39.7989C36.5372 39.8069 36.5563 39.8102 36.5754 39.8086L36.8977 39.7759C36.9958 39.7525 36.9982 39.5797 36.8977 39.4466L36.851 39.3812C36.7786 39.2831 36.6828 39.2504 36.6314 39.3088Z" fill="#FFCC99"/>
<path d="M40.3729 41.3524L40.2468 41.6186C40.2327 41.6444 40.226 41.6737 40.2275 41.703C40.229 41.7324 40.2387 41.7608 40.2554 41.7851C40.2721 41.8093 40.2952 41.8284 40.3222 41.8402C40.3491 41.8521 40.3788 41.8562 40.4079 41.8522L40.6415 41.8288C40.7396 41.8055 40.7419 41.6326 40.6415 41.4995L40.5948 41.4341C40.5224 41.3267 40.4243 41.294 40.3729 41.3524Z" fill="#FFCC99"/>
<path d="M40.1722 38.1223L39.8756 38.3792C39.859 38.3946 39.8471 38.4144 39.8413 38.4363C39.8356 38.4581 39.8361 38.4812 39.843 38.5028C39.8499 38.5243 39.8627 38.5435 39.8801 38.558C39.8974 38.5725 39.9186 38.5818 39.941 38.5848L40.3567 38.6268C40.4572 38.6268 40.4875 38.4493 40.4151 38.3022L40.3801 38.2298C40.3217 38.1223 40.233 38.0733 40.1722 38.1223Z" fill="#FFCC99"/>
<path d="M39.3871 35.4975L39.1723 35.703C39.1522 35.7221 39.138 35.7465 39.1312 35.7734C39.1244 35.8002 39.1253 35.8284 39.1339 35.8548C39.1424 35.8811 39.1582 35.9045 39.1795 35.9223C39.2007 35.9401 39.2266 35.9515 39.254 35.9552L39.5716 36.0019C39.6721 36.0019 39.7024 35.8244 39.63 35.6773L39.595 35.6049C39.5319 35.4951 39.4479 35.4484 39.3871 35.4975Z" fill="#FFCC99"/>
<path d="M35.3278 40.0607L35.0032 40.5278L35.5124 40.5699C35.6128 40.5699 35.6432 40.3924 35.5708 40.2452L35.5357 40.1728C35.4727 40.0607 35.3816 40.0117 35.3278 40.0607Z" fill="#FFCC99"/>
<path d="M34.847 37.4565L34.6135 37.8068C34.6051 37.8183 34.5999 37.8318 34.5985 37.8459C34.5971 37.86 34.5995 37.8742 34.6055 37.8871C34.6115 37.9 34.6208 37.911 34.6324 37.9191C34.6441 37.9271 34.6577 37.9319 34.6719 37.933L35.0409 37.9633C35.1413 37.9633 35.1717 37.7858 35.0993 37.6387L35.0642 37.5663C34.9965 37.4565 34.9054 37.4075 34.847 37.4565Z" fill="#FFCC99"/>
</g>
<defs>
<filter id="filter0_i" x="0" y="0.000244141" width="69" height="69.9998" filterUnits="userSpaceOnUse" color-interpolation-filters="sRGB">
<feFlood flood-opacity="0" result="BackgroundImageFix"/>
<feBlend mode="normal" in="SourceGraphic" in2="BackgroundImageFix" result="shape"/>
<feColorMatrix in="SourceAlpha" type="matrix" values="0 0 0 0 0 0 0 0 0 0 0 0 0 0 0 0 0 0 127 0" result="hardAlpha"/>
<feOffset dy="1"/>
<feGaussianBlur stdDeviation="2"/>
<feComposite in2="hardAlpha" operator="arithmetic" k2="-1" k3="1"/>
<feColorMatrix type="matrix" values="0 0 0 0 1 0 0 0 0 1 0 0 0 0 1 0 0 0 0.25 0"/>
<feBlend mode="normal" in2="shape" result="effect1_innerShadow"/>
</filter>
<filter id="filter1_d" x="12.2004" y="12.95" width="44.98" height="44.978" filterUnits="userSpaceOnUse" color-interpolation-filters="sRGB">
<feFlood flood-opacity="0" result="BackgroundImageFix"/>
<feColorMatrix in="SourceAlpha" type="matrix" values="0 0 0 0 0 0 0 0 0 0 0 0 0 0 0 0 0 0 127 0"/>
<feOffset dy="1"/>
<feGaussianBlur stdDeviation="1"/>
<feColorMatrix type="matrix" values="0 0 0 0 0 0 0 0 0 0 0 0 0 0 0 0 0 0 0.25 0"/>
<feBlend mode="normal" in2="BackgroundImageFix" result="effect1_dropShadow"/>
<feBlend mode="normal" in="SourceGraphic" in2="effect1_dropShadow" result="shape"/>
</filter>
<filter id="filter2_i" x="16.4404" y="16.3066" width="36.491" height="40.4893" filterUnits="userSpaceOnUse" color-interpolation-filters="sRGB">
<feFlood flood-opacity="0" result="BackgroundImageFix"/>
<feBlend mode="normal" in="SourceGraphic" in2="BackgroundImageFix" result="shape"/>
<feColorMatrix in="SourceAlpha" type="matrix" values="0 0 0 0 0 0 0 0 0 0 0 0 0 0 0 0 0 0 127 0" result="hardAlpha"/>
<feOffset dy="4"/>
<feGaussianBlur stdDeviation="2"/>
<feComposite in2="hardAlpha" operator="arithmetic" k2="-1" k3="1"/>
<feColorMatrix type="matrix" values="0 0 0 0 0 0 0 0 0 0 0 0 0 0 0 0 0 0 0.25 0"/>
<feBlend mode="normal" in2="shape" result="effect1_innerShadow"/>
</filter>
<filter id="filter3_d" x="23.1956" y="20.4888" width="28.1964" height="17.9127" filterUnits="userSpaceOnUse" color-interpolation-filters="sRGB">
<feFlood flood-opacity="0" result="BackgroundImageFix"/>
<feColorMatrix in="SourceAlpha" type="matrix" values="0 0 0 0 0 0 0 0 0 0 0 0 0 0 0 0 0 0 127 0"/>
<feOffset dy="4"/>
<feGaussianBlur stdDeviation="2"/>
<feColorMatrix type="matrix" values="0 0 0 0 0 0 0 0 0 0 0 0 0 0 0 0 0 0 0.25 0"/>
<feBlend mode="normal" in2="BackgroundImageFix" result="effect1_dropShadow"/>
<feBlend mode="normal" in="SourceGraphic" in2="effect1_dropShadow" result="shape"/>
</filter>
<filter id="filter4_d" x="10.9519" y="18.8264" width="28.1976" height="33.138" filterUnits="userSpaceOnUse" color-interpolation-filters="sRGB">
<feFlood flood-opacity="0" result="BackgroundImageFix"/>
<feColorMatrix in="SourceAlpha" type="matrix" values="0 0 0 0 0 0 0 0 0 0 0 0 0 0 0 0 0 0 127 0"/>
<feOffset dy="4"/>
<feGaussianBlur stdDeviation="2"/>
<feColorMatrix type="matrix" values="0 0 0 0 0 0 0 0 0 0 0 0 0 0 0 0 0 0 0.25 0"/>
<feBlend mode="normal" in2="BackgroundImageFix" result="effect1_dropShadow"/>
<feBlend mode="normal" in="SourceGraphic" in2="effect1_dropShadow" result="shape"/>
</filter>
<filter id="filter5_d" x="15.3406" y="19.2002" width="12.4835" height="13.3839" filterUnits="userSpaceOnUse" color-interpolation-filters="sRGB">
<feFlood flood-opacity="0" result="BackgroundImageFix"/>
<feColorMatrix in="SourceAlpha" type="matrix" values="0 0 0 0 0 0 0 0 0 0 0 0 0 0 0 0 0 0 127 0"/>
<feOffset dx="-1" dy="1"/>
<feGaussianBlur stdDeviation="2"/>
<feColorMatrix type="matrix" values="0 0 0 0 0 0 0 0 0 0 0 0 0 0 0 0 0 0 0.25 0"/>
<feBlend mode="normal" in2="BackgroundImageFix" result="effect1_dropShadow"/>
<feBlend mode="normal" in="SourceGraphic" in2="effect1_dropShadow" result="shape"/>
</filter>
<filter id="filter6_d" x="20.2104" y="18.8264" width="15.6677" height="16.4191" filterUnits="userSpaceOnUse" color-interpolation-filters="sRGB">
<feFlood flood-opacity="0" result="BackgroundImageFix"/>
<feColorMatrix in="SourceAlpha" type="matrix" values="0 0 0 0 0 0 0 0 0 0 0 0 0 0 0 0 0 0 127 0"/>
<feOffset dy="4"/>
<feGaussianBlur stdDeviation="2"/>
<feColorMatrix type="matrix" values="0 0 0 0 0 0 0 0 0 0 0 0 0 0 0 0 0 0 0.25 0"/>
<feBlend mode="normal" in2="BackgroundImageFix" result="effect1_dropShadow"/>
<feBlend mode="normal" in="SourceGraphic" in2="effect1_dropShadow" result="shape"/>
</filter>
<filter id="filter7_d" x="22.4136" y="24.0247" width="9.97205" height="6.83382" filterUnits="userSpaceOnUse" color-interpolation-filters="sRGB">
<feFlood flood-opacity="0" result="BackgroundImageFix"/>
<feColorMatrix in="SourceAlpha" type="matrix" values="0 0 0 0 0 0 0 0 0 0 0 0 0 0 0 0 0 0 127 0"/>
<feOffset dy="1"/>
<feGaussianBlur stdDeviation="1"/>
<feColorMatrix type="matrix" values="0 0 0 0 0 0 0 0 0 0 0 0 0 0 0 0 0 0 0.25 0"/>
<feBlend mode="normal" in2="BackgroundImageFix" result="effect1_dropShadow"/>
<feBlend mode="normal" in="SourceGraphic" in2="effect1_dropShadow" result="shape"/>
</filter>
<filter id="filter8_di" x="14.2175" y="30.3313" width="10.8027" height="11.9703" filterUnits="userSpaceOnUse" color-interpolation-filters="sRGB">
<feFlood flood-opacity="0" result="BackgroundImageFix"/>
<feColorMatrix in="SourceAlpha" type="matrix" values="0 0 0 0 0 0 0 0 0 0 0 0 0 0 0 0 0 0 127 0"/>
<feOffset/>
<feGaussianBlur stdDeviation="2"/>
<feColorMatrix type="matrix" values="0 0 0 0 1 0 0 0 0 1 0 0 0 0 1 0 0 0 0.25 0"/>
<feBlend mode="normal" in2="BackgroundImageFix" result="effect1_dropShadow"/>
<feBlend mode="normal" in="SourceGraphic" in2="effect1_dropShadow" result="shape"/>
<feColorMatrix in="SourceAlpha" type="matrix" values="0 0 0 0 0 0 0 0 0 0 0 0 0 0 0 0 0 0 127 0" result="hardAlpha"/>
<feOffset dy="4"/>
<feGaussianBlur stdDeviation="2"/>
<feComposite in2="hardAlpha" operator="arithmetic" k2="-1" k3="1"/>
<feColorMatrix type="matrix" values="0 0 0 0 1 0 0 0 0 1 0 0 0 0 1 0 0 0 0.25 0"/>
<feBlend mode="normal" in2="shape" result="effect2_innerShadow"/>
</filter>
<filter id="filter9_di" x="13.8958" y="26.0317" width="10.4447" height="11.5311" filterUnits="userSpaceOnUse" color-interpolation-filters="sRGB">
<feFlood flood-opacity="0" result="BackgroundImageFix"/>
<feColorMatrix in="SourceAlpha" type="matrix" values="0 0 0 0 0 0 0 0 0 0 0 0 0 0 0 0 0 0 127 0"/>
<feOffset/>
<feGaussianBlur stdDeviation="2"/>
<feColorMatrix type="matrix" values="0 0 0 0 1 0 0 0 0 1 0 0 0 0 1 0 0 0 0.25 0"/>
<feBlend mode="normal" in2="BackgroundImageFix" result="effect1_dropShadow"/>
<feBlend mode="normal" in="SourceGraphic" in2="effect1_dropShadow" result="shape"/>
<feColorMatrix in="SourceAlpha" type="matrix" values="0 0 0 0 0 0 0 0 0 0 0 0 0 0 0 0 0 0 127 0" result="hardAlpha"/>
<feOffset dy="4"/>
<feGaussianBlur stdDeviation="2"/>
<feComposite in2="hardAlpha" operator="arithmetic" k2="-1" k3="1"/>
<feColorMatrix type="matrix" values="0 0 0 0 1 0 0 0 0 1 0 0 0 0 1 0 0 0 0.25 0"/>
<feBlend mode="normal" in2="shape" result="effect2_innerShadow"/>
</filter>
<filter id="filter10_d" x="17.4863" y="25.689" width="8.92039" height="5.57101" filterUnits="userSpaceOnUse" color-interpolation-filters="sRGB">
<feFlood flood-opacity="0" result="BackgroundImageFix"/>
<feColorMatrix in="SourceAlpha" type="matrix" values="0 0 0 0 0 0 0 0 0 0 0 0 0 0 0 0 0 0 127 0"/>
<feOffset dy="1"/>
<feGaussianBlur stdDeviation="1"/>
<feColorMatrix type="matrix" values="0 0 0 0 0 0 0 0 0 0 0 0 0 0 0 0 0 0 0.25 0"/>
<feBlend mode="normal" in2="BackgroundImageFix" result="effect1_dropShadow"/>
<feBlend mode="normal" in="SourceGraphic" in2="effect1_dropShadow" result="shape"/>
</filter>
<filter id="filter11_d" x="27.2004" y="23.7522" width="33.1183" height="26.8951" filterUnits="userSpaceOnUse" color-interpolation-filters="sRGB">
<feFlood flood-opacity="0" result="BackgroundImageFix"/>
<feColorMatrix in="SourceAlpha" type="matrix" values="0 0 0 0 0 0 0 0 0 0 0 0 0 0 0 0 0 0 127 0"/>
<feOffset dy="4"/>
<feGaussianBlur stdDeviation="2"/>
<feColorMatrix type="matrix" values="0 0 0 0 0 0 0 0 0 0 0 0 0 0 0 0 0 0 0.25 0"/>
<feBlend mode="normal" in2="BackgroundImageFix" result="effect1_dropShadow"/>
<feBlend mode="normal" in="SourceGraphic" in2="effect1_dropShadow" result="shape"/>
</filter>
<filter id="filter12_d" x="18.2346" y="39.252" width="33.7487" height="20.7677" filterUnits="userSpaceOnUse" color-interpolation-filters="sRGB">
<feFlood flood-opacity="0" result="BackgroundImageFix"/>
<feColorMatrix in="SourceAlpha" type="matrix" values="0 0 0 0 0 0 0 0 0 0 0 0 0 0 0 0 0 0 127 0"/>
<feOffset dy="4"/>
<feGaussianBlur stdDeviation="2"/>
<feColorMatrix type="matrix" values="0 0 0 0 0 0 0 0 0 0 0 0 0 0 0 0 0 0 0.25 0"/>
<feBlend mode="normal" in2="BackgroundImageFix" result="effect1_dropShadow"/>
<feBlend mode="normal" in="SourceGraphic" in2="effect1_dropShadow" result="shape"/>
</filter>
<filter id="filter13_i" x="35.5452" y="41.9172" width="5.1546" height="8.73883" filterUnits="userSpaceOnUse" color-interpolation-filters="sRGB">
<feFlood flood-opacity="0" result="BackgroundImageFix"/>
<feBlend mode="normal" in="SourceGraphic" in2="BackgroundImageFix" result="shape"/>
<feColorMatrix in="SourceAlpha" type="matrix" values="0 0 0 0 0 0 0 0 0 0 0 0 0 0 0 0 0 0 127 0" result="hardAlpha"/>
<feOffset dy="1"/>
<feGaussianBlur stdDeviation="2"/>
<feComposite in2="hardAlpha" operator="arithmetic" k2="-1" k3="1"/>
<feColorMatrix type="matrix" values="0 0 0 0 1 0 0 0 0 0.48525 0 0 0 0 0.1125 0 0 0 0.25 0"/>
<feBlend mode="normal" in2="shape" result="effect1_innerShadow"/>
</filter>
<filter id="filter14_i" x="29.4072" y="42.0112" width="5.03314" height="8.7117" filterUnits="userSpaceOnUse" color-interpolation-filters="sRGB">
<feFlood flood-opacity="0" result="BackgroundImageFix"/>
<feBlend mode="normal" in="SourceGraphic" in2="BackgroundImageFix" result="shape"/>
<feColorMatrix in="SourceAlpha" type="matrix" values="0 0 0 0 0 0 0 0 0 0 0 0 0 0 0 0 0 0 127 0" result="hardAlpha"/>
<feOffset dy="1"/>
<feGaussianBlur stdDeviation="2"/>
<feComposite in2="hardAlpha" operator="arithmetic" k2="-1" k3="1"/>
<feColorMatrix type="matrix" values="0 0 0 0 1 0 0 0 0 0.48525 0 0 0 0 0.1125 0 0 0 0.25 0"/>
<feBlend mode="normal" in2="shape" result="effect1_innerShadow"/>
</filter>
<filter id="filter15_i" x="37.5537" y="41.1609" width="6.82458" height="7.24503" filterUnits="userSpaceOnUse" color-interpolation-filters="sRGB">
<feFlood flood-opacity="0" result="BackgroundImageFix"/>
<feBlend mode="normal" in="SourceGraphic" in2="BackgroundImageFix" result="shape"/>
<feColorMatrix in="SourceAlpha" type="matrix" values="0 0 0 0 0 0 0 0 0 0 0 0 0 0 0 0 0 0 127 0" result="hardAlpha"/>
<feOffset dy="1"/>
<feGaussianBlur stdDeviation="2"/>
<feComposite in2="hardAlpha" operator="arithmetic" k2="-1" k3="1"/>
<feColorMatrix type="matrix" values="0 0 0 0 1 0 0 0 0 0.48525 0 0 0 0 0.1125 0 0 0 0.25 0"/>
<feBlend mode="normal" in2="shape" result="effect1_innerShadow"/>
</filter>
<filter id="filter16_i" x="25.813" y="41.1982" width="6.77319" height="6.85734" filterUnits="userSpaceOnUse" color-interpolation-filters="sRGB">
<feFlood flood-opacity="0" result="BackgroundImageFix"/>
<feBlend mode="normal" in="SourceGraphic" in2="BackgroundImageFix" result="shape"/>
<feColorMatrix in="SourceAlpha" type="matrix" values="0 0 0 0 0 0 0 0 0 0 0 0 0 0 0 0 0 0 127 0" result="hardAlpha"/>
<feOffset dy="1"/>
<feGaussianBlur stdDeviation="2"/>
<feComposite in2="hardAlpha" operator="arithmetic" k2="-1" k3="1"/>
<feColorMatrix type="matrix" values="0 0 0 0 0.904167 0 0 0 0 0.308924 0 0 0 0 0.308924 0 0 0 0.25 0"/>
<feBlend mode="normal" in2="shape" result="effect1_innerShadow"/>
</filter>
<filter id="filter17_d" x="19.3372" y="27.7605" width="23.1545" height="23.0346" filterUnits="userSpaceOnUse" color-interpolation-filters="sRGB">
<feFlood flood-opacity="0" result="BackgroundImageFix"/>
<feColorMatrix in="SourceAlpha" type="matrix" values="0 0 0 0 0 0 0 0 0 0 0 0 0 0 0 0 0 0 127 0"/>
<feOffset dy="4"/>
<feGaussianBlur stdDeviation="2"/>
<feColorMatrix type="matrix" values="0 0 0 0 0 0 0 0 0 0 0 0 0 0 0 0 0 0 0.25 0"/>
<feBlend mode="normal" in2="BackgroundImageFix" result="effect1_dropShadow"/>
<feBlend mode="normal" in="SourceGraphic" in2="effect1_dropShadow" result="shape"/>
</filter>
<filter id="filter18_d" x="19.3372" y="24.7605" width="17.1981" height="15.2727" filterUnits="userSpaceOnUse" color-interpolation-filters="sRGB">
<feFlood flood-opacity="0" result="BackgroundImageFix"/>
<feColorMatrix in="SourceAlpha" type="matrix" values="0 0 0 0 0 0 0 0 0 0 0 0 0 0 0 0 0 0 127 0"/>
<feOffset dy="1"/>
<feGaussianBlur stdDeviation="2"/>
<feColorMatrix type="matrix" values="0 0 0 0 0 0 0 0 0 0 0 0 0 0 0 0 0 0 0.25 0"/>
<feBlend mode="normal" in2="BackgroundImageFix" result="effect1_dropShadow"/>
<feBlend mode="normal" in="SourceGraphic" in2="effect1_dropShadow" result="shape"/>
</filter>
<filter id="filter19_d" x="31.0212" y="36.1775" width="2.63239" height="2.50783" filterUnits="userSpaceOnUse" color-interpolation-filters="sRGB">
<feFlood flood-opacity="0" result="BackgroundImageFix"/>
<feColorMatrix in="SourceAlpha" type="matrix" values="0 0 0 0 0 0 0 0 0 0 0 0 0 0 0 0 0 0 127 0"/>
<feOffset/>
<feGaussianBlur stdDeviation="0.5"/>
<feColorMatrix type="matrix" values="0 0 0 0 0 0 0 0 0 0 0 0 0 0 0 0 0 0 0.25 0"/>
<feBlend mode="normal" in2="BackgroundImageFix" result="effect1_dropShadow"/>
<feBlend mode="normal" in="SourceGraphic" in2="effect1_dropShadow" result="shape"/>
</filter>
<filter id="filter20_d" x="28.0488" y="31.7869" width="24.2675" height="19.2403" filterUnits="userSpaceOnUse" color-interpolation-filters="sRGB">
<feFlood flood-opacity="0" result="BackgroundImageFix"/>
<feColorMatrix in="SourceAlpha" type="matrix" values="0 0 0 0 0 0 0 0 0 0 0 0 0 0 0 0 0 0 127 0"/>
<feOffset dy="4"/>
<feGaussianBlur stdDeviation="2"/>
<feColorMatrix type="matrix" values="0 0 0 0 0 0 0 0 0 0 0 0 0 0 0 0 0 0 0.25 0"/>
<feBlend mode="normal" in2="BackgroundImageFix" result="effect1_dropShadow"/>
<feBlend mode="normal" in="SourceGraphic" in2="effect1_dropShadow" result="shape"/>
</filter>
<filter id="filter21_d" x="36.8025" y="30.7869" width="13.5138" height="14.5908" filterUnits="userSpaceOnUse" color-interpolation-filters="sRGB">
<feFlood flood-opacity="0" result="BackgroundImageFix"/>
<feColorMatrix in="SourceAlpha" type="matrix" values="0 0 0 0 0 0 0 0 0 0 0 0 0 0 0 0 0 0 127 0"/>
<feOffset dy="1"/>
<feGaussianBlur stdDeviation="1"/>
<feColorMatrix type="matrix" values="0 0 0 0 0 0 0 0 0 0 0 0 0 0 0 0 0 0 0.25 0"/>
<feBlend mode="normal" in2="BackgroundImageFix" result="effect1_dropShadow"/>
<feBlend mode="normal" in="SourceGraphic" in2="effect1_dropShadow" result="shape"/>
</filter>
<linearGradient id="paint0_linear" x1="34.6795" y1="1.2915" x2="34.6795" y2="67.5252" gradientUnits="userSpaceOnUse">
<stop stop-color="#FFCF7D"/>
<stop offset="1" stop-color="#FFBC4A"/>
</linearGradient>
<linearGradient id="paint1_linear" x1="34.5" y1="0.000244141" x2="34.5" y2="69" gradientUnits="userSpaceOnUse">
<stop stop-color="#E33243"/>
<stop offset="1" stop-color="#EA0348"/>
</linearGradient>
<linearGradient id="paint2_linear" x1="34.6905" y1="13.95" x2="34.6905" y2="54.928" gradientUnits="userSpaceOnUse">
<stop stop-color="#EE385B"/>
<stop offset="1" stop-color="#8D172E"/>
</linearGradient>
<linearGradient id="paint3_linear" x1="34.6859" y1="16.3066" x2="34.6859" y2="52.7959" gradientUnits="userSpaceOnUse">
<stop stop-color="#89BEEB"/>
<stop offset="1" stop-color="#3C2D41"/>
</linearGradient>
<linearGradient id="paint4_linear" x1="37.2937" y1="20.4888" x2="37.2937" y2="28.3714" gradientUnits="userSpaceOnUse">
<stop stop-color="#92CC3C"/>
<stop offset="1" stop-color="#699A21"/>
</linearGradient>
<linearGradient id="paint5_linear" x1="37.0492" y1="21.7615" x2="37.0492" y2="30.4015" gradientUnits="userSpaceOnUse">
<stop stop-color="#D8EB87"/>
<stop offset="1" stop-color="#7E9A08"/>
</linearGradient>
<radialGradient id="paint6_radial" cx="0" cy="0" r="1" gradientUnits="userSpaceOnUse" gradientTransform="translate(41.0396 27.2074) rotate(90) scale(1.91858 2.84821)">
<stop stop-color="#C8DA3F"/>
<stop offset="1" stop-color="#CAD85D"/>
</radialGradient>
<radialGradient id="paint7_radial" cx="0" cy="0" r="1" gradientUnits="userSpaceOnUse" gradientTransform="translate(37.7188 25.8708) rotate(90) scale(2.96796 2.18726)">
<stop stop-color="#C8DA3F"/>
<stop offset="1" stop-color="#CAD85D"/>
</radialGradient>
<radialGradient id="paint8_radial" cx="0" cy="0" r="1" gradientUnits="userSpaceOnUse" gradientTransform="translate(32.6772 25.7841) rotate(90) scale(2.63907 1.98526)">
<stop stop-color="#C8DA3F"/>
<stop offset="1" stop-color="#CAD85D"/>
</radialGradient>
<linearGradient id="paint9_linear" x1="17.0497" y1="30.0108" x2="30.3622" y2="37.4848" gradientUnits="userSpaceOnUse">
<stop stop-color="#CBEB49"/>
<stop offset="0.481869" stop-color="#AFCF2A"/>
<stop offset="1" stop-color="#97B61A"/>
</linearGradient>
<linearGradient id="paint10_linear" x1="22.5823" y1="22.2002" x2="22.5823" y2="27.5841" gradientUnits="userSpaceOnUse">
<stop stop-color="#AC9520"/>
<stop offset="1" stop-color="#2F290A"/>
</linearGradient>
<linearGradient id="paint11_linear" x1="28.0443" y1="18.8264" x2="28.0443" y2="27.2455" gradientUnits="userSpaceOnUse">
<stop stop-color="#71931F"/>
<stop offset="1" stop-color="#43590C"/>
</linearGradient>
<linearGradient id="paint12_linear" x1="27.3996" y1="25.0247" x2="27.3996" y2="27.8585" gradientUnits="userSpaceOnUse">
<stop stop-color="#708710"/>
<stop offset="1" stop-color="#5B6C13"/>
</linearGradient>
<linearGradient id="paint13_linear" x1="21.9465" y1="26.689" x2="21.9465" y2="28.26" gradientUnits="userSpaceOnUse">
<stop stop-color="#536D03"/>
<stop offset="1" stop-color="#52690A"/>
</linearGradient>
<linearGradient id="paint14_linear" x1="55.0535" y1="23.7522" x2="55.0535" y2="29.5835" gradientUnits="userSpaceOnUse">
<stop stop-color="#594C0A"/>
<stop offset="1" stop-color="#594C0A"/>
</linearGradient>
<linearGradient id="paint15_linear" x1="42.8407" y1="26.604" x2="38.5374" y2="43.4395" gradientUnits="userSpaceOnUse">
<stop stop-color="#FBFF66"/>
<stop offset="1" stop-color="#A5A907"/>
</linearGradient>
<linearGradient id="paint16_linear" x1="35.1089" y1="39.252" x2="35.1089" y2="52.0196" gradientUnits="userSpaceOnUse">
<stop stop-color="#DA8B21"/>
<stop offset="0.494792" stop-color="#EDA441"/>
<stop offset="1" stop-color="#FDA126"/>
</linearGradient>
<linearGradient id="paint17_linear" x1="35.1025" y1="40.1191" x2="35.1025" y2="50.8042" gradientUnits="userSpaceOnUse">
<stop stop-color="#EAC75E"/>
<stop offset="1" stop-color="#FACF4E"/>
</linearGradient>
<radialGradient id="paint18_radial" cx="0" cy="0" r="1" gradientUnits="userSpaceOnUse" gradientTransform="translate(38.1225 45.7867) rotate(90) scale(3.86941 2.5773)">
<stop stop-color="#F2C94D"/>
<stop offset="1" stop-color="#FFCF40"/>
</radialGradient>
<radialGradient id="paint19_radial" cx="0" cy="0" r="1" gradientUnits="userSpaceOnUse" gradientTransform="translate(31.9238 45.8671) rotate(90) scale(3.85585 2.51657)">
<stop stop-color="#F2C94D"/>
<stop offset="1" stop-color="#FFCF40"/>
</radialGradient>
<radialGradient id="paint20_radial" cx="0" cy="0" r="1" gradientUnits="userSpaceOnUse" gradientTransform="translate(40.966 44.2834) rotate(90) scale(3.12252 3.41229)">
<stop stop-color="#F2C94D"/>
<stop offset="1" stop-color="#FFCF40"/>
</radialGradient>
<radialGradient id="paint21_radial" cx="0" cy="0" r="1" gradientUnits="userSpaceOnUse" gradientTransform="translate(29.1996 44.1269) rotate(90) scale(2.92867 3.3866)">
<stop stop-color="#F2C94D"/>
<stop offset="1" stop-color="#FFCF40"/>
</radialGradient>
<linearGradient id="paint22_linear" x1="32.2211" y1="29.7035" x2="32.2211" y2="42.8149" gradientUnits="userSpaceOnUse">
<stop stop-color="#FF788A"/>
<stop offset="1" stop-color="#D51B35"/>
</linearGradient>
<linearGradient id="paint23_linear" x1="25.925" y1="34.099" x2="31.8805" y2="28.6103" gradientUnits="userSpaceOnUse">
<stop stop-color="#2F931D"/>
<stop offset="1" stop-color="#76D964"/>
</linearGradient>
<linearGradient id="paint24_linear" x1="37.705" y1="34.2339" x2="37.705" y2="43.0272" gradientUnits="userSpaceOnUse">
<stop stop-color="#FFA7B1"/>
<stop offset="1" stop-color="#E7001B"/>
</linearGradient>
<linearGradient id="paint25_linear" x1="43.5594" y1="31.7869" x2="43.5594" y2="42.3776" gradientUnits="userSpaceOnUse">
<stop stop-color="#7ACD40"/>
<stop offset="1" stop-color="#2B6700"/>
</linearGradient>
</defs>
</svg>
