<svg width="1440" height="37" viewBox="0 0 1440 37" fill="none" xmlns="http://www.w3.org/2000/svg">
<path d="M763 36.5002C781.5 36.5002 787.438 -24.1553 859 25.5004C883.5 42.5006 888.585 1.45486 948 4.50036C1021.79 8.28292 992 53.5003 1048.5 27C1056.22 23.3803 1097.68 2.95791 1142 13.0003C1179.5 21.4984 1173.5 64.0013 1238.5 8.50126C1288 -7.49878 1311.02 43.6038 1330 27C1344 13.001 1368.5 11.501 1405.5 13.001C1444.36 15.083 1463.48 0.469562 1465.5 0.000377655L1446.04 0.000345436L6.35755 -3.21949e-05L3.19617e-06 -3.27506e-05C19.5 1.49987 30.0082 5.81118 37.5 13.5002C56.5 33.0002 56.0054 18.8928 80 8.50029C103.995 -1.89224 99.5 35.0002 145.5 13.5002C168.993 2.51971 195.5 27.0001 212 27.0001C228.5 27.0001 226.543 -3.46483 265.5 13.5002C296.5 27.0002 307 40.5001 335 27.0001C356.665 16.5543 376.5 -1.49929 395 8.50029C413.5 18.4999 425.5 42.5001 439 25.5001C459.207 0.0546606 464.211 -7.87404 488.5 13.5002C526 46.5001 513.5 16.0001 542 25.5001C574.213 36.2378 580 2.50037 610 25.5001C647.308 54.1025 648 3.00029 681.5 8.50029C702 11.866 749.5 36.5002 763 36.5002Z" fill="#FFD56A"/>
</svg>
