<svg width="1440" height="71" viewBox="0 0 1440 71" fill="none" xmlns="http://www.w3.org/2000/svg">
<path d="M99.5 34.1861C45.6617 14.8064 19.3288 18.9749 -0.999996 23.6862L-0.999988 70.686L1438.68 70.686L1438.68 45.6862C1443.68 27.9496 1394.95 33.1863 1371.95 11.1861C1338.56 -20.7519 1319.45 24.7937 1295.45 35.1862C1271.46 45.5788 1263.04 -19.0253 1238.95 16.6863C1224.45 38.1863 1179.45 51.1863 1162.45 40.1863C1135.17 22.5306 1141.41 57.1513 1102.45 40.1862C1071.45 26.6862 1038.46 15.3798 1017.45 35.1863C999.954 51.6863 952.954 49.6863 930.954 40.1863C908.954 30.6863 908.454 29.6863 867.954 40.1863C836.501 48.3407 811.948 65.4887 782.454 52.1863C752.961 38.8839 731.381 69.1419 696.454 47.6863C661.454 26.1861 641.954 70.686 611.954 47.6863C574.646 19.0839 541.454 57.6864 507.954 52.1864C451.898 42.9832 410.954 39.6864 351.454 39.6864C334.454 39.6864 181.454 63.6865 99.5 34.1861Z" fill="white"/>
</svg>
