<svg width="1440" height="71" viewBox="0 0 1440 71" fill="none" xmlns="http://www.w3.org/2000/svg">
<path d="M1339.45 36.5003C1393.29 55.8801 1419.63 51.7116 1439.95 47.0003L1439.95 0.000480652L0.276495 0.000103021L0.276493 24.9999C-4.72241 42.7365 44 37.4999 67 59.5C100.39 91.438 119.505 45.8925 143.5 35.4999C167.495 25.1074 175.915 89.7115 200 53.9999C214.5 32.4999 259.5 19.4999 276.5 30.4999C303.786 48.1556 297.543 13.535 336.5 30.5C367.5 44 400.493 55.3064 421.5 35.4999C439 19 486 21 508 30.5C530 40 530.5 41 571 30.5C602.453 22.3456 627.007 5.19756 656.5 18.5C685.993 31.8024 707.573 1.54447 742.5 23C777.5 44.5003 797 0.000310002 827 23C864.308 51.6025 897.5 13 931 18.5C987.056 27.7032 1028 31 1087.5 31C1104.5 31 1257.5 7 1339.45 36.5003Z" fill="white"/>
</svg>
